<svg width="22" height="22" viewBox="0 0 22 22" fill="none" xmlns="http://www.w3.org/2000/svg">
<path d="M19.25 16.8025C19.0795 15.6784 18.6039 14.6226 17.875 13.75C17.1441 14.6213 16.6682 15.6777 16.5 16.8025C16.4776 16.9964 16.4964 17.1929 16.5553 17.379C16.6141 17.5651 16.7117 17.7366 16.8415 17.8823C16.9714 18.0281 17.1306 18.1447 17.3087 18.2246C17.4868 18.3044 17.6798 18.3457 17.875 18.3457C18.0702 18.3457 18.2632 18.3044 18.4413 18.2246C18.6194 18.1447 18.7786 18.0281 18.9085 17.8823C19.0383 17.7366 19.1359 17.5651 19.1947 17.379C19.2536 17.1929 19.2724 16.9964 19.25 16.8025ZM10.0833 18.6358C9.91284 17.5117 9.43725 16.4559 8.70833 15.5833C7.97739 16.4546 7.50154 17.511 7.33333 18.6358C7.31334 19.021 7.44683 19.3984 7.70455 19.6853C7.96228 19.9723 8.32323 20.1454 8.70833 20.1667C9.09343 20.1454 9.45438 19.9723 9.71211 19.6853C9.96984 19.3984 10.1033 19.021 10.0833 18.6358ZM13.2917 20.1667C13.6768 20.1454 14.0377 19.9723 14.2954 19.6853C14.5532 19.3984 14.6867 19.021 14.6667 18.6358C14.4962 17.5117 14.0206 16.4559 13.2917 15.5833C12.5607 16.4546 12.0849 17.511 11.9167 18.6358C11.8967 19.021 12.0302 19.3984 12.2879 19.6853C12.5456 19.9723 12.9066 20.1454 13.2917 20.1667ZM2.75 16.8025C2.73 17.1877 2.86349 17.5651 3.12122 17.852C3.37895 18.1389 3.7399 18.312 4.125 18.3333C4.5101 18.312 4.87105 18.1389 5.12878 17.852C5.38651 17.5651 5.51999 17.1877 5.5 16.8025C5.32951 15.6784 4.85392 14.6226 4.125 13.75C3.39406 14.6213 2.9182 15.6777 2.75 16.8025ZM11.9167 3.73083V1.83333H10.0833V3.73083C8.31231 3.95396 6.68348 4.81538 5.5022 6.15361C4.32091 7.49184 3.66828 9.21498 3.66667 11H1.83333V12.8333H20.1667V11H18.3333C18.3317 9.21498 17.6791 7.49184 16.4978 6.15361C15.3165 4.81538 13.6877 3.95396 11.9167 3.73083ZM5.5 11C5.5 9.54131 6.07946 8.14236 7.11091 7.11091C8.14236 6.07946 9.54131 5.5 11 5.5C12.4587 5.5 13.8576 6.07946 14.8891 7.11091C15.9205 8.14236 16.5 9.54131 16.5 11H5.5Z" fill="#D31313"/>
</svg>
