<svg width="22" height="22" viewBox="0 0 22 22" fill="none" xmlns="http://www.w3.org/2000/svg">
<path d="M18.3333 8.76058V2.75H16.5V4.58333H5.5V2.75H3.66667V8.76058C2.57583 9.39583 1.83333 10.5646 1.83333 11.9167V15.5833C1.83333 15.8264 1.92991 16.0596 2.10182 16.2315C2.27373 16.4034 2.50688 16.5 2.75 16.5H3.66667V20.1667H5.5V16.5H16.5V20.1667H18.3333V16.5H19.25C19.4931 16.5 19.7263 16.4034 19.8982 16.2315C20.0701 16.0596 20.1667 15.8264 20.1667 15.5833V11.9167C20.1667 10.5646 19.4232 9.39583 18.3333 8.76058ZM16.5 6.41667V8.25H11.9167V6.41667H16.5ZM5.5 6.41667H10.0833V8.25H5.5V6.41667ZM18.3333 14.6667H3.66667V11.9167C3.66667 10.9056 4.48892 10.0833 5.5 10.0833H16.5C17.5111 10.0833 18.3333 10.9056 18.3333 11.9167V14.6667Z" fill="#D31313"/>
</svg>
