<svg width="50" height="50" viewBox="0 0 50 50" fill="none" xmlns="http://www.w3.org/2000/svg">
<path d="M22.9167 8.33334H8.33335C7.22828 8.33334 6.16848 8.77232 5.38708 9.55372C4.60567 10.3351 4.16669 11.3949 4.16669 12.5V41.6667C4.16669 42.7717 4.60567 43.8315 5.38708 44.6129C6.16848 45.3943 7.22828 45.8333 8.33335 45.8333H37.5C38.6051 45.8333 39.6649 45.3943 40.4463 44.6129C41.2277 43.8315 41.6667 42.7717 41.6667 41.6667V27.0833" stroke="black" stroke-width="2" stroke-linecap="round" stroke-linejoin="round"/>
<path d="M38.5417 5.20833C39.3705 4.37953 40.4946 3.91392 41.6667 3.91392C42.8388 3.91392 43.9629 4.37953 44.7917 5.20833C45.6205 6.03714 46.0861 7.16123 46.0861 8.33333C46.0861 9.50544 45.6205 10.6295 44.7917 11.4583L25 31.25L16.6667 33.3333L18.75 25L38.5417 5.20833Z" stroke="black" stroke-width="2" stroke-linecap="round" stroke-linejoin="round"/>
</svg>
