<svg width="22" height="22" viewBox="0 0 22 22" fill="none" xmlns="http://www.w3.org/2000/svg">
<path d="M19.25 9.16667H6.41667V6.41667C6.41667 5.40558 7.23892 4.58333 8.25 4.58333C9.26108 4.58333 10.0833 5.40558 10.0833 6.41667H11.9167C11.9167 4.3945 10.2722 2.75 8.25 2.75C6.22783 2.75 4.58333 4.3945 4.58333 6.41667V9.16667H2.75C2.50688 9.16667 2.27373 9.26324 2.10182 9.43515C1.92991 9.60706 1.83333 9.84022 1.83333 10.0833V11.9167C1.83333 14.3055 3.36783 16.3377 5.5 17.0958V20.1667H7.33333V17.4167H14.6667V20.1667H16.5V17.0958C18.6322 16.3377 20.1667 14.3055 20.1667 11.9167V10.0833C20.1667 9.84022 20.0701 9.60706 19.8982 9.43515C19.7263 9.26324 19.4931 9.16667 19.25 9.16667ZM18.3333 11.9167C18.3333 13.9388 16.6888 15.5833 14.6667 15.5833H7.33333C5.31117 15.5833 3.66667 13.9388 3.66667 11.9167V11H18.3333V11.9167Z" fill="#D31313"/>
</svg>
